# xmcd CD database file
# Copyright (C) 1993-1998 Ti Kan
# 
# Track frame offsets:
#     150
#     14177
#     27035
#     40437
#     55270
#     68787
#     84785
#     100770
#     114785
#     130887
#     142992
#     154787
#     169317
#     183685
#     197035
#     209175
#     219485
#     232282
#     245947
#     258547
#     271177
#     307025
#     332310
# 
# Disc length: 4771 seconds
# 
# Revision: 1
# Processed by: cddbd v1.4b41PL1 Copyright (c) Steve Scherf et al.
# Submitted via: DiscPlay 4.0.4
# 
DISCID=5a12a117
DTITLE=Johnnie Taylor - Raw Blues - Little Bluebird
DYEAR=1900
DGENRE=
TTITLE0=Where There's Smoke There's Fire
TTITLE1=Hello Sundown
TTITLE2=Pardon Me, Lady
TTITLE3=Wher Can A Man Go From Here
TTITLE4=That Bone
TTITLE5=That's Where It's At
TTITLE6=Part Time Love
TTITLE7=If I Had To Do All Over
TTITLE8=You're Good For Me
TTITLE9=You Can't Keep A Good Man Down
TTITLE10=You Can't Win With A Losing Hand
TTITLE11=Little Bluebird
TTITLE12=Toe Hold
TTITLE13=I've Got To Love Somebody's Baby
TTITLE14=Just The One (I've Been Looking For)
TTITLE15=Outside Love
TTITLE16=You Can't Get Away From It
TTITLE17=I Had A Dream
TTITLE18=Somebody's Sleeping In My Bed
TTITLE19=I Ain't Particular
TTITLE20=Steal Away (Live)
TTITLE21=Stop Dogging Me (Live)
TTITLE22=Jody's Got Your Girl And Gone (Live)
EXTD=
EXTT0=
EXTT1=
EXTT2=
EXTT3=
EXTT4=
EXTT5=
EXTT6=
EXTT7=
EXTT8=
EXTT9=
EXTT10=
EXTT11=
EXTT12=
EXTT13=
EXTT14=
EXTT15=
EXTT16=
EXTT17=
EXTT18=
EXTT19=
EXTT20=
EXTT21=
EXTT22=
PLAYORDER=
